# xmcd
#
# Track frame offsets:
#	150
#	15666
#	41231
#	92179
#	117650
#	153838
#	166310
#	191802
#	217530
#	250318
#
# Disc length: 3619 seconds
#
# Revision: 0
# Processed by: cddbd v1.5.2PL0 Copyright (c) Steve Scherf et al.
# Submitted via: audiograbber 1.83.01
#
DISCID=820e210a
DTITLE=Grateful Dead - 94-10-01 Boston Garden, Boston MA
DYEAR=1900
DGENRE=
TTITLE0=Help On The Way
TTITLE1=Slipknot!
TTITLE2=Franklin's Tower
TTITLE3=Walkin' Blues
TTITLE4=Althea
TTITLE5=Me and My Uncle
TTITLE6=Big River
TTITLE7=Just Like Tom Thumb's Blues
TTITLE8=So Many Roads
TTITLE9=Promised Land
EXTD=
EXTT0=
EXTT1=
EXTT2=
EXTT3=
EXTT4=
EXTT5=
EXTT6=
EXTT7=
EXTT8=
EXTT9=
PLAYORDER=
